<svg xmlns="http://www.w3.org/2000/svg" version="1.1" xmlns:xlink="http://www.w3.org/1999/xlink" xmlns:svgjs="http://svgjs.com/svgjs" width="1440" height="560" preserveAspectRatio="none" viewBox="0 0 1440 560">
    <g mask="url(&quot;#SvgjsMask1029&quot;)" fill="none">
        <path d="M1347 356L1346 101" stroke-width="10" stroke="url(#SvgjsLinearGradient1030)" stroke-linecap="round" class="Up"></path>
        <path d="M480 249L479 13" stroke-width="6" stroke="url(#SvgjsLinearGradient1031)" stroke-linecap="round" class="Down"></path>
        <path d="M1435 53L1434 379" stroke-width="10" stroke="url(#SvgjsLinearGradient1031)" stroke-linecap="round" class="Down"></path>
        <path d="M394 242L393 414" stroke-width="6" stroke="url(#SvgjsLinearGradient1031)" stroke-linecap="round" class="Down"></path>
        <path d="M34 52L33 -287" stroke-width="6" stroke="url(#SvgjsLinearGradient1030)" stroke-linecap="round" class="Up"></path>
        <path d="M1007 453L1006 43" stroke-width="6" stroke="url(#SvgjsLinearGradient1030)" stroke-linecap="round" class="Up"></path>
        <path d="M1059 108L1058 420" stroke-width="6" stroke="url(#SvgjsLinearGradient1031)" stroke-linecap="round" class="Down"></path>
        <path d="M615 195L614 -215" stroke-width="10" stroke="url(#SvgjsLinearGradient1030)" stroke-linecap="round" class="Up"></path>
        <path d="M377 405L376 236" stroke-width="6" stroke="url(#SvgjsLinearGradient1030)" stroke-linecap="round" class="Up"></path>
        <path d="M1236 465L1235 736" stroke-width="10" stroke="url(#SvgjsLinearGradient1031)" stroke-linecap="round" class="Down"></path>
        <path d="M1260 224L1259 53" stroke-width="8" stroke="url(#SvgjsLinearGradient1031)" stroke-linecap="round" class="Down"></path>
        <path d="M1307 353L1306 -47" stroke-width="6" stroke="url(#SvgjsLinearGradient1031)" stroke-linecap="round" class="Down"></path>
        <path d="M13 38L12 397" stroke-width="8" stroke="url(#SvgjsLinearGradient1030)" stroke-linecap="round" class="Up"></path>
        <path d="M469 72L468 -263" stroke-width="8" stroke="url(#SvgjsLinearGradient1030)" stroke-linecap="round" class="Up"></path>
        <path d="M196 422L195 80" stroke-width="8" stroke="url(#SvgjsLinearGradient1031)" stroke-linecap="round" class="Down"></path>
        <path d="M1046 544L1045 782" stroke-width="10" stroke="url(#SvgjsLinearGradient1030)" stroke-linecap="round" class="Up"></path>
        <path d="M657 190L656 410" stroke-width="6" stroke="url(#SvgjsLinearGradient1031)" stroke-linecap="round" class="Down"></path>
        <path d="M1265 45L1264 417" stroke-width="6" stroke="url(#SvgjsLinearGradient1030)" stroke-linecap="round" class="Up"></path>
        <path d="M167 170L166 -135" stroke-width="6" stroke="url(#SvgjsLinearGradient1031)" stroke-linecap="round" class="Down"></path>
        <path d="M795 267L794 584" stroke-width="10" stroke="url(#SvgjsLinearGradient1030)" stroke-linecap="round" class="Up"></path>
        <path d="M15 103L14 -169" stroke-width="8" stroke="url(#SvgjsLinearGradient1031)" stroke-linecap="round" class="Down"></path>
        <path d="M306 278L305 529" stroke-width="10" stroke="url(#SvgjsLinearGradient1031)" stroke-linecap="round" class="Down"></path>
        <path d="M757 121L756 330" stroke-width="6" stroke="url(#SvgjsLinearGradient1030)" stroke-linecap="round" class="Up"></path>
        <path d="M381 399L380 247" stroke-width="10" stroke="url(#SvgjsLinearGradient1031)" stroke-linecap="round" class="Down"></path>
        <path d="M1238 335L1237 130" stroke-width="8" stroke="url(#SvgjsLinearGradient1031)" stroke-linecap="round" class="Down"></path>
        <path d="M754 192L753 -50" stroke-width="10" stroke="url(#SvgjsLinearGradient1031)" stroke-linecap="round" class="Down"></path>
        <path d="M790 287L789 654" stroke-width="10" stroke="url(#SvgjsLinearGradient1031)" stroke-linecap="round" class="Down"></path>
        <path d="M564 281L563 -40" stroke-width="10" stroke="url(#SvgjsLinearGradient1030)" stroke-linecap="round" class="Up"></path>
        <path d="M1169 342L1168 737" stroke-width="10" stroke="url(#SvgjsLinearGradient1031)" stroke-linecap="round" class="Down"></path>
        <path d="M1054 299L1053 572" stroke-width="6" stroke="url(#SvgjsLinearGradient1031)" stroke-linecap="round" class="Down"></path>
        <path d="M1098 25L1097 -292" stroke-width="10" stroke="url(#SvgjsLinearGradient1030)" stroke-linecap="round" class="Up"></path>
        <path d="M618 39L617 378" stroke-width="6" stroke="url(#SvgjsLinearGradient1030)" stroke-linecap="round" class="Up"></path>
        <path d="M1207 232L1206 498" stroke-width="6" stroke="url(#SvgjsLinearGradient1031)" stroke-linecap="round" class="Down"></path>
        <path d="M405 160L404 480" stroke-width="10" stroke="url(#SvgjsLinearGradient1031)" stroke-linecap="round" class="Down"></path>
        <path d="M1130 257L1129 446" stroke-width="10" stroke="url(#SvgjsLinearGradient1031)" stroke-linecap="round" class="Down"></path>
        <path d="M587 491L586 239" stroke-width="6" stroke="url(#SvgjsLinearGradient1031)" stroke-linecap="round" class="Down"></path>
    </g>
    <defs>
        <mask id="SvgjsMask1029">
            <rect width="1440" height="560" fill="#ffffff"></rect>
        </mask>
        <linearGradient x1="0%" y1="100%" x2="0%" y2="0%" id="SvgjsLinearGradient1030">
            <stop stop-color="rgba(0, 0, 0, 0)" offset="0"></stop>
            <stop stop-color="rgba(0, 0, 0, 1)" offset="1"></stop>
        </linearGradient>
        <linearGradient x1="0%" y1="0%" x2="0%" y2="100%" id="SvgjsLinearGradient1031">
            <stop stop-color="rgba(0, 0, 0, 0)" offset="0"></stop>
            <stop stop-color="rgba(0, 0, 0, 1)" offset="1"></stop>
        </linearGradient>
    </defs>
</svg>